<svg width="428" height="1281" viewBox="0 0 428 1281" fill="none" xmlns="http://www.w3.org/2000/svg">
<g clip-path="url(#clip0_2024_295)">
<g filter="url(#filter0_d_2024_295)">
<path fill-rule="evenodd" clip-rule="evenodd" d="M254.656 72.5869C302.145 -12.5504 492.755 -26.0687 552.823 83.301C627.595 42.0747 758.256 63.5991 806.914 153.236C831.78 199.041 873.658 278.736 831.78 410.339C831.78 410.339 918.154 445.801 905.067 612.771C891.98 779.74 731.658 818.793 731.658 818.793C731.658 818.793 606.935 1127.8 309.606 916.787C197.115 1027.69 50.5935 976.843 -24.9999 916.787L-24.9999 590.37L-25 170.623C-25 170.623 26.3698 -32.8285 254.656 72.5869Z" fill="#FF2D84"/>
</g>
</g>
<defs>
<filter id="filter0_d_2024_295" x="-29" y="5" width="939.417" height="993.514" filterUnits="userSpaceOnUse" color-interpolation-filters="sRGB">
<feFlood flood-opacity="0" result="BackgroundImageFix"/>
<feColorMatrix in="SourceAlpha" type="matrix" values="0 0 0 0 0 0 0 0 0 0 0 0 0 0 0 0 0 0 127 0" result="hardAlpha"/>
<feOffset dy="4"/>
<feGaussianBlur stdDeviation="2"/>
<feComposite in2="hardAlpha" operator="out"/>
<feColorMatrix type="matrix" values="0 0 0 0 0 0 0 0 0 0 0 0 0 0 0 0 0 0 0.25 0"/>
<feBlend mode="normal" in2="BackgroundImageFix" result="effect1_dropShadow_2024_295"/>
<feBlend mode="normal" in="SourceGraphic" in2="effect1_dropShadow_2024_295" result="shape"/>
</filter>
<clipPath id="clip0_2024_295">
<rect width="428" height="1281" fill="white"/>
</clipPath>
</defs>
</svg>

