<svg width="335" height="91" viewBox="0 0 335 91" fill="none" xmlns="http://www.w3.org/2000/svg">
<mask id="mask0_356_193" style="mask-type:luminance" maskUnits="userSpaceOnUse" x="0" y="0" width="335" height="91">
<path d="M334.938 0.535034H0V90.7251H334.938V0.535034Z" fill="white"/>
</mask>
<g mask="url(#mask0_356_193)">
<g filter="url(#filter0_d_356_193)">
<path d="M2.46069 36.4691L29.1787 33.5165L30.446 44.9506L15.1785 46.6378L15.6008 50.4492L30.8684 48.7619L32.1355 60.1959L16.8681 61.8833L18.5578 77.1292L7.1072 78.3941L2.46069 36.4691ZM49.0852 73.7552L37.6347 75.0201L32.9881 33.0956L44.4387 31.83L49.0852 73.7552ZM52.0947 30.9841L74.9961 28.4533L79.6423 70.3786L52.9245 73.3305L49.9676 46.6513L65.235 44.964L64.8125 41.1527L53.362 42.4182L52.0947 30.9841ZM66.9247 60.2094L66.5022 56.3982L62.6851 56.8197L63.1077 60.6313L66.9247 60.2094ZM79.6503 35.655L106.368 32.7024L110.17 67.0046L94.9021 68.6916L95.7472 76.3139L84.2964 77.5801L79.6503 35.655ZM97.4521 56.8358L96.1849 45.4018L92.3678 45.8236L93.635 57.2577L97.4521 56.8358ZM110.178 32.2814L136.896 29.3288L140.697 63.6306L125.43 65.3176L126.275 72.9412L114.824 74.2061L110.178 32.2814ZM127.979 53.4623L126.712 42.0282L122.896 42.45L124.163 53.8841L127.979 53.4623ZM155.972 27.2206L167.423 25.9552L172.069 67.8802L145.352 70.8321L144.084 59.3987L159.352 57.7114L158.929 53.9L143.661 55.5871L140.705 28.9077L152.156 27.6424L153.845 42.8878L157.663 42.466L155.972 27.2206ZM170.388 17.9116L197.105 14.9589L199.217 34.0157L187.767 35.2811L186.923 27.6584L183.105 28.0802L185.217 47.1369L189.035 46.7151L188.189 39.0924L199.64 37.827L201.752 56.8836L175.035 59.8362L170.388 17.9116ZM201.337 18.3493L228.055 15.3967L232.279 53.5101L205.562 56.4627L201.337 18.3493ZM219.561 43.3415L217.872 28.0961L214.056 28.5179L215.744 43.7633L219.561 43.3415ZM231.443 11.1644L242.893 9.89893L244.16 21.333L232.709 22.5983L231.443 11.1644ZM233.132 26.4098L244.583 25.1443L247.539 51.8238L236.088 53.0891L233.132 26.4098ZM262.829 50.1341L251.379 51.3995L247.154 13.286L273.873 10.3335L278.096 48.4469L266.647 49.7122L263.689 23.0329L259.872 23.4547L262.829 50.1341ZM281.374 43.2236L286.183 42.6921L286.715 47.4944L281.907 48.0259L281.374 43.2236ZM286.554 31.3086L297.775 30.0685L298.485 36.4716L293.676 37.0031L293.498 35.4022L291.895 35.5795L292.605 41.9825L294.208 41.8054L293.854 38.6039L298.662 38.0723L299.549 46.0762L288.328 47.3162L286.554 31.3086ZM299.375 29.8918L310.597 28.6516L312.37 44.6592L301.149 45.8994L299.375 29.8918ZM307.029 40.3884L306.319 33.9854L304.717 34.1625L305.426 40.5656L307.029 40.3884ZM312.197 28.4748L329.831 26.526L331.604 42.5338L326.796 43.0652L325.554 31.8598L323.95 32.037L325.193 43.2424L320.383 43.7738L319.141 32.5684L317.538 32.7456L318.78 43.951L313.971 44.4824L312.197 28.4748Z" fill="url(#paint0_linear_356_193)"/>
<mask id="mask1_356_193" style="mask-type:luminance" maskUnits="userSpaceOnUse" x="0" y="-3" width="336" height="92">
<path d="M335.26 -2.03381H0.0615234V88.7678H335.26V-2.03381Z" fill="white"/>
<path d="M2.46069 36.4691L29.1787 33.5165L30.446 44.9506L15.1785 46.6378L15.6008 50.4492L30.8684 48.7619L32.1355 60.1959L16.8681 61.8833L18.5578 77.1292L7.1072 78.3941L2.46069 36.4691ZM49.0852 73.7552L37.6347 75.0201L32.9881 33.0956L44.4387 31.83L49.0852 73.7552ZM52.0947 30.9841L74.9961 28.4533L79.6423 70.3786L52.9245 73.3305L49.9676 46.6513L65.235 44.964L64.8125 41.1527L53.362 42.4182L52.0947 30.9841ZM66.9247 60.2094L66.5022 56.3982L62.6851 56.8197L63.1077 60.6313L66.9247 60.2094ZM79.6503 35.655L106.368 32.7024L110.17 67.0046L94.9021 68.6916L95.7472 76.3139L84.2964 77.5801L79.6503 35.655ZM97.4521 56.8358L96.1849 45.4018L92.3678 45.8236L93.635 57.2577L97.4521 56.8358ZM110.178 32.2814L136.896 29.3288L140.697 63.6306L125.43 65.3176L126.275 72.9412L114.824 74.2061L110.178 32.2814ZM127.979 53.4623L126.712 42.0282L122.896 42.45L124.163 53.8841L127.979 53.4623ZM155.972 27.2206L167.423 25.9552L172.069 67.8802L145.352 70.8321L144.084 59.3987L159.352 57.7114L158.929 53.9L143.661 55.5871L140.705 28.9077L152.156 27.6424L153.845 42.8878L157.663 42.466L155.972 27.2206ZM170.388 17.9116L197.105 14.9589L199.217 34.0157L187.767 35.2811L186.923 27.6584L183.105 28.0802L185.217 47.1369L189.035 46.7151L188.189 39.0924L199.64 37.827L201.752 56.8836L175.035 59.8362L170.388 17.9116ZM201.337 18.3493L228.055 15.3967L232.279 53.5101L205.562 56.4627L201.337 18.3493ZM219.561 43.3415L217.872 28.0961L214.056 28.5179L215.744 43.7633L219.561 43.3415ZM231.443 11.1644L242.893 9.89893L244.16 21.333L232.709 22.5983L231.443 11.1644ZM233.132 26.4098L244.583 25.1443L247.539 51.8238L236.088 53.0891L233.132 26.4098ZM262.829 50.1341L251.379 51.3995L247.154 13.286L273.873 10.3335L278.096 48.4469L266.647 49.7122L263.689 23.0329L259.872 23.4547L262.829 50.1341ZM281.374 43.2236L286.183 42.6921L286.715 47.4944L281.907 48.0259L281.374 43.2236ZM286.554 31.3086L297.775 30.0685L298.485 36.4716L293.676 37.0031L293.498 35.4022L291.895 35.5795L292.605 41.9825L294.208 41.8054L293.854 38.6039L298.662 38.0723L299.549 46.0762L288.328 47.3162L286.554 31.3086ZM299.375 29.8918L310.597 28.6516L312.37 44.6592L301.149 45.8994L299.375 29.8918ZM307.029 40.3884L306.319 33.9854L304.717 34.1625L305.426 40.5656L307.029 40.3884ZM312.197 28.4748L329.831 26.526L331.604 42.5338L326.796 43.0652L325.554 31.8598L323.95 32.037L325.193 43.2424L320.383 43.7738L319.141 32.5684L317.538 32.7456L318.78 43.951L313.971 44.4824L312.197 28.4748Z" fill="black"/>
</mask>
<g mask="url(#mask1_356_193)">
<path d="M2.46066 36.4691L2.22411 34.3347L0.0866699 34.5709L0.32322 36.7053L2.46066 36.4691ZM29.1787 33.5165L31.3161 33.2803L31.0796 31.1459L28.9421 31.3821L29.1787 33.5165ZM30.446 44.9506L30.6825 47.0848L32.8198 46.8486L32.5833 44.7144L30.446 44.9506ZM15.1784 46.6377L14.942 44.5034L12.8045 44.7396L13.041 46.8739L15.1784 46.6377ZM15.6008 50.4491L13.4635 50.6853L13.7 52.8196L15.8374 52.5834L15.6008 50.4491ZM30.8683 48.7619L33.0057 48.5257L32.7692 46.3913L30.6317 46.6275L30.8683 48.7619ZM32.1355 60.1958L32.3721 62.3304L34.5095 62.0941L34.273 59.9596L32.1355 60.1958ZM16.8681 61.8832L16.6315 59.7487L14.4941 59.9849L14.7306 62.1194L16.8681 61.8832ZM18.5578 77.1292L18.7943 79.2631L20.9318 79.0272L20.6953 76.8919L18.5578 77.1292ZM7.10717 78.3941L4.96974 78.63L5.20628 80.764L7.34372 80.528L7.10717 78.3941ZM2.69721 38.6034L29.4152 35.6509L28.9421 31.3821L2.22411 34.3347L2.69721 38.6034ZM27.0412 33.7527L28.3085 45.1868L32.5833 44.7144L31.3161 33.2803L27.0412 33.7527ZM30.2093 42.8161L14.942 44.5034L15.4149 48.7721L30.6825 47.0848L30.2093 42.8161ZM13.041 46.8739L13.4635 50.6853L17.7383 50.2129L17.316 46.4015L13.041 46.8739ZM15.8374 52.5834L31.1048 50.8963L30.6317 46.6275L15.3644 48.3146L15.8374 52.5834ZM28.7309 48.9981L29.9981 60.4321L34.273 59.9596L33.0057 48.5257L28.7309 48.9981ZM31.899 58.0613L16.6315 59.7487L17.1046 64.0172L32.3721 62.3304L31.899 58.0613ZM14.7306 62.1194L16.4203 77.3651L20.6953 76.8919L19.0056 61.647L14.7306 62.1194ZM18.3212 74.9939L6.87061 76.2588L7.34372 80.528L18.7943 79.2631L18.3212 74.9939ZM9.24459 78.1581L4.5981 36.2329L0.32322 36.7053L4.96974 78.63L9.24459 78.1581ZM49.0852 73.7552L49.3217 75.8891L51.4592 75.6532L51.2225 73.5192L49.0852 73.7552ZM37.6345 75.0201L35.4971 75.256L35.7336 77.3913L37.8711 77.1554L37.6345 75.0201ZM32.988 33.0956L32.7514 30.9611L30.6141 31.1973L30.8507 33.3317L32.988 33.0956ZM44.4386 31.83L46.5761 31.5939L46.3396 29.4596L44.2021 29.6958L44.4386 31.83ZM48.8486 71.6199L37.398 72.8861L37.8711 77.1554L49.3217 75.8891L48.8486 71.6199ZM39.772 74.7841L35.1256 32.8593L30.8507 33.3317L35.4971 75.256L39.772 74.7841ZM33.2245 35.2298L44.6752 33.9645L44.2021 29.6958L32.7514 30.9611L33.2245 35.2298ZM42.3012 32.0663L46.9477 73.9911L51.2225 73.5192L46.5761 31.5939L42.3012 32.0663ZM52.0947 30.984L51.8581 28.8496L49.7208 29.0859L49.9573 31.2202L52.0947 30.984ZM74.9961 28.4533L77.1332 28.2171L76.8966 26.0827L74.7596 26.3189L74.9961 28.4533ZM79.6423 70.3785L79.8788 72.5125L82.0164 72.2766L81.7799 70.1426L79.6423 70.3785ZM52.9244 73.3305L50.787 73.5664L51.0235 75.7017L53.161 75.4644L52.9244 73.3305ZM49.9675 46.6512L49.7309 44.5168L47.5936 44.7531L47.8301 46.8874L49.9675 46.6512ZM65.235 44.964L65.4716 47.0983L67.6092 46.8621L67.3726 44.7278L65.235 44.964ZM64.8125 41.1527L66.9501 40.9165L66.7135 38.7821L64.5759 39.0183L64.8125 41.1527ZM53.362 42.4181L51.2245 42.6543L51.461 44.7886L53.5985 44.5524L53.362 42.4181ZM66.9247 60.2094L67.1613 62.3439L69.2983 62.1077L69.0618 59.9731L66.9247 60.2094ZM66.5022 56.3982L68.6398 56.162L68.4032 54.0275L66.2656 54.2637L66.5022 56.3982ZM62.6851 56.8196L62.4486 54.6856L60.3115 54.922L60.548 57.0558L62.6851 56.8196ZM63.1077 60.6313L60.9701 60.8675L61.2066 63.0014L63.3442 62.7658L63.1077 60.6313ZM52.3312 33.1184L75.2327 30.5876L74.7596 26.3189L51.8581 28.8496L52.3312 33.1184ZM72.8585 28.6895L77.5052 70.6145L81.7799 70.1426L77.1332 28.2171L72.8585 28.6895ZM79.4057 68.2432L52.6879 71.1965L53.161 75.4644L79.8788 72.5125L79.4057 68.2432ZM55.0616 73.0945L52.1049 46.415L47.8301 46.8874L50.787 73.5664L55.0616 73.0945ZM50.204 48.7856L65.4716 47.0983L64.9985 42.8297L49.7309 44.5168L50.204 48.7856ZM67.3726 44.7278L66.9501 40.9165L62.6749 41.3889L63.0974 45.2002L67.3726 44.7278ZM64.5759 39.0183L53.1254 40.2838L53.5985 44.5524L65.049 43.2871L64.5759 39.0183ZM55.4992 42.1819L54.232 30.7478L49.9573 31.2202L51.2245 42.6543L55.4992 42.1819ZM69.0618 59.9731L68.6398 56.162L64.3646 56.6344L64.7871 60.4456L69.0618 59.9731ZM66.2656 54.2637L62.4486 54.6856L62.9217 58.9541L66.7387 58.5322L66.2656 54.2637ZM60.548 57.0558L60.9701 60.8675L65.2453 60.3951L64.8227 56.5834L60.548 57.0558ZM63.3442 62.7658L67.1613 62.3439L66.6882 58.0748L62.8711 58.4968L63.3442 62.7658ZM79.6503 35.6549L79.4137 33.5206L77.2761 33.7568L77.5127 35.8911L79.6503 35.6549ZM106.368 32.7024L108.506 32.4661L108.269 30.3318L106.131 30.568L106.368 32.7024ZM110.17 67.0045L110.407 69.1385L112.544 68.9026L112.307 66.7686L110.17 67.0045ZM94.9021 68.6915L94.6655 66.5576L92.5285 66.7935L92.765 68.9275L94.9021 68.6915ZM95.7472 76.3138L95.9837 78.4491L98.1213 78.2119L97.8848 76.0779L95.7472 76.3138ZM84.2964 77.5801L82.1594 77.816L82.3959 79.95L84.533 79.714L84.2964 77.5801ZM97.452 56.8357L97.6885 58.9703L99.8261 58.734L99.5896 56.5995L97.452 56.8357ZM96.1849 45.4018L98.3224 45.1656L98.0859 43.0312L95.9483 43.2674L96.1849 45.4018ZM92.3678 45.8236L92.1312 43.6892L89.9942 43.9254L90.2307 46.0598L92.3678 45.8236ZM93.6349 57.2577L91.4979 57.4939L91.7344 59.6279L93.8715 59.3917L93.6349 57.2577ZM79.8868 37.7893L106.605 34.8367L106.131 30.568L79.4137 33.5206L79.8868 37.7893ZM104.23 32.9386L108.032 67.2405L112.307 66.7686L108.506 32.4661L104.23 32.9386ZM109.934 64.8706L94.6655 66.5576L95.1386 70.8255L110.407 69.1385L109.934 64.8706ZM92.765 68.9275L93.6096 76.5498L97.8848 76.0779L97.0397 68.4556L92.765 68.9275ZM95.5106 74.1799L84.0599 75.4461L84.533 79.714L95.9837 78.4491L95.5106 74.1799ZM86.434 77.3428L81.7873 35.4187L77.5127 35.8911L82.1594 77.816L86.434 77.3428ZM99.5896 56.5995L98.3224 45.1656L94.0473 45.638L95.3144 57.072L99.5896 56.5995ZM95.9483 43.2674L92.1312 43.6892L92.6043 47.9578L96.4214 47.5361L95.9483 43.2674ZM90.2307 46.0598L91.4979 57.4939L95.7725 57.0215L94.5054 45.5874L90.2307 46.0598ZM93.8715 59.3917L97.6885 58.9703L97.2154 54.7012L93.3984 55.1232L93.8715 59.3917ZM110.178 32.2813L109.941 30.147L107.803 30.3833L108.04 32.5175L110.178 32.2813ZM136.896 29.3287L139.033 29.0925L138.797 26.9582L136.658 27.1944L136.896 29.3287ZM140.697 63.6305L140.934 65.7645L143.071 65.5286L142.834 63.3946L140.697 63.6305ZM125.43 65.3175L125.193 63.1836L123.056 63.4195L123.292 65.5548L125.43 65.3175ZM126.275 72.9411L126.511 75.0751L128.649 74.8392L128.412 72.7039L126.275 72.9411ZM114.824 74.2061L112.687 74.442L112.923 76.5773L115.061 76.3401L114.824 74.2061ZM127.979 53.4623L128.216 55.5968L130.353 55.3606L130.117 53.2261L127.979 53.4623ZM126.712 42.0282L128.85 41.792L128.613 39.6576L126.476 39.8938L126.712 42.0282ZM122.896 42.45L122.659 40.3156L120.521 40.5518L120.758 42.6862L122.896 42.45ZM124.163 53.8841L122.025 54.1203L122.262 56.2544L124.399 56.0182L124.163 53.8841ZM110.414 34.4157L137.132 31.4631L136.658 27.1944L109.941 30.147L110.414 34.4157ZM134.759 29.565L138.56 63.8665L142.834 63.3946L139.033 29.0925L134.759 29.565ZM140.461 61.4967L125.193 63.1836L125.666 67.4528L140.934 65.7645L140.461 61.4967ZM123.292 65.5548L124.137 73.1771L128.412 72.7039L127.567 65.0816L123.292 65.5548ZM126.038 70.8072L114.588 72.0721L115.061 76.3401L126.511 75.0751L126.038 70.8072ZM116.961 73.9701L112.315 32.0451L108.04 32.5175L112.687 74.442L116.961 73.9701ZM130.117 53.2261L128.85 41.792L124.575 42.2644L125.842 53.6985L130.117 53.2261ZM126.476 39.8938L122.659 40.3156L123.132 44.5844L126.949 44.1625L126.476 39.8938ZM120.758 42.6862L122.025 54.1203L126.3 53.6479L125.033 42.2138L120.758 42.6862ZM124.399 56.0182L128.216 55.5968L127.743 51.3279L123.926 51.7497L124.399 56.0182ZM155.972 27.2206L155.736 25.0862L153.598 25.3224L153.835 27.4568L155.972 27.2206ZM167.422 25.9551L169.56 25.7189L169.323 23.5846L167.186 23.8208L167.422 25.9551ZM172.069 67.8801L172.306 70.0141L174.443 69.7782L174.207 67.6429L172.069 67.8801ZM145.352 70.8321L143.214 71.068L143.45 73.2033L145.588 72.9674L145.352 70.8321ZM144.084 59.3986L143.848 57.2641L141.711 57.5003L141.947 59.6348L144.084 59.3986ZM159.352 57.7114L159.588 59.8459L161.725 59.6097L161.489 57.4752L159.352 57.7114ZM158.929 53.8999L161.066 53.6637L160.83 51.5294L158.693 51.7656L158.929 53.8999ZM143.661 55.5871L141.524 55.8233L141.761 57.9578L143.899 57.7216L143.661 55.5871ZM140.705 28.9077L140.469 26.7735L138.331 27.0097L138.567 29.1439L140.705 28.9077ZM152.156 27.6424L154.293 27.4062L154.057 25.2718L151.92 25.508L152.156 27.6424ZM153.845 42.8878L151.708 43.124L151.944 45.2584L154.082 45.0222L153.845 42.8878ZM157.663 42.466L157.899 44.6003L160.036 44.3641L159.8 42.2298L157.663 42.466ZM156.209 29.355L167.66 28.0895L167.186 23.8208L155.736 25.0862L156.209 29.355ZM165.285 26.1914L169.932 68.1161L174.207 67.6429L169.56 25.7189L165.285 26.1914ZM171.833 65.7462L145.115 68.6981L145.588 72.9674L172.306 70.0141L171.833 65.7462ZM147.489 70.5961L146.221 59.1624L141.947 59.6348L143.214 71.068L147.489 70.5961ZM144.32 61.5326L159.588 59.8459L159.116 55.5769L143.848 57.2641L144.32 61.5326ZM161.489 57.4752L161.066 53.6637L156.791 54.1362L157.214 57.9476L161.489 57.4752ZM158.693 51.7656L143.425 53.4528L143.899 57.7216L159.166 56.0342L158.693 51.7656ZM145.8 55.3509L142.842 28.6715L138.567 29.1439L141.524 55.8233L145.8 55.3509ZM140.941 31.0421L152.392 29.7768L151.92 25.508L140.469 26.7735L140.941 31.0421ZM150.017 27.8786L151.708 43.124L155.982 42.6516L154.293 27.4062L150.017 27.8786ZM154.082 45.0222L157.899 44.6003L157.425 40.3316L153.608 40.7534L154.082 45.0222ZM159.8 42.2298L158.11 26.9844L153.835 27.4568L155.524 42.7022L159.8 42.2298ZM170.388 17.9116L170.152 15.7772L168.013 16.0134L168.249 18.1478L170.388 17.9116ZM197.105 14.9588L199.242 14.7226L199.006 12.5884L196.869 12.8246L197.105 14.9588ZM199.217 34.0156L199.454 36.15L201.592 35.9138L201.356 33.7794L199.217 34.0156ZM187.767 35.2811L185.63 35.5173L185.866 37.6515L188.003 37.4153L187.767 35.2811ZM186.923 27.6584L189.06 27.4222L188.823 25.2878L186.685 25.524L186.923 27.6584ZM183.105 28.0802L182.869 25.9457L180.732 26.182L180.968 28.3164L183.105 28.0802ZM185.217 47.1369L183.08 47.3731L183.317 49.5075L185.454 49.2712L185.217 47.1369ZM189.035 46.7151L189.271 48.8494L191.408 48.6132L191.172 46.4789L189.035 46.7151ZM188.189 39.0924L187.953 36.958L185.815 37.1942L186.052 39.3286L188.189 39.0924ZM199.64 37.8269L201.777 37.5907L201.541 35.4565L199.404 35.6927L199.64 37.8269ZM201.752 56.8836L201.988 59.0181L204.125 58.7819L203.889 56.6474L201.752 56.8836ZM175.035 59.8362L172.896 60.0724L173.133 62.2069L175.271 61.9707L175.035 59.8362ZM170.624 20.0459L197.343 17.0932L196.869 12.8246L170.152 15.7772L170.624 20.0459ZM194.968 15.1951L197.08 34.2518L201.356 33.7794L199.242 14.7226L194.968 15.1951ZM198.981 31.8813L187.53 33.1467L188.003 37.4153L199.454 36.15L198.981 31.8813ZM189.904 35.0449L189.06 27.4222L184.784 27.8946L185.63 35.5173L189.904 35.0449ZM186.685 25.524L182.869 25.9457L183.342 30.2145L187.159 29.7926L186.685 25.524ZM180.968 28.3164L183.08 47.3731L187.354 46.9007L185.242 27.844L180.968 28.3164ZM185.454 49.2712L189.271 48.8494L188.798 44.5807L184.981 45.0025L185.454 49.2712ZM191.172 46.4789L190.326 38.8562L186.052 39.3286L186.896 46.9513L191.172 46.4789ZM188.426 41.2267L199.876 39.9613L199.404 35.6927L187.953 36.958L188.426 41.2267ZM197.503 38.0631L199.615 57.1198L203.889 56.6474L201.777 37.5907L197.503 38.0631ZM201.516 54.7496L174.797 57.7017L175.271 61.9707L201.988 59.0181L201.516 54.7496ZM177.172 59.6L172.525 17.6752L168.249 18.1478L172.896 60.0724L177.172 59.6ZM201.337 18.3492L201.101 16.2148L198.963 16.4511L199.2 18.5856L201.337 18.3492ZM228.055 15.3966L230.193 15.1604L229.957 13.0261L227.818 13.2623L228.055 15.3966ZM232.279 53.5101L232.515 55.6445L234.654 55.4083L234.417 53.2739L232.279 53.5101ZM205.562 56.4627L203.424 56.6989L203.661 58.8334L205.798 58.5972L205.562 56.4627ZM219.561 43.3415L219.798 45.4758L221.936 45.2396L221.7 43.1052L219.561 43.3415ZM217.872 28.0961L220.009 27.8599L219.773 25.7255L217.636 25.9618L217.872 28.0961ZM214.056 28.5179L213.818 26.3835L211.681 26.6197L211.918 28.7541L214.056 28.5179ZM215.744 43.7633L213.607 43.9995L213.845 46.1338L215.982 45.8976L215.744 43.7633ZM201.574 20.4836L228.292 17.531L227.818 13.2623L201.101 16.2148L201.574 20.4836ZM225.918 15.6329L230.142 53.7463L234.417 53.2739L230.193 15.1604L225.918 15.6329ZM232.043 51.3757L205.325 54.3282L205.798 58.5972L232.515 55.6445L232.043 51.3757ZM207.699 56.2265L203.474 18.113L199.2 18.5856L203.424 56.6989L207.699 56.2265ZM221.7 43.1052L220.009 27.8599L215.735 28.3323L217.424 43.5777L221.7 43.1052ZM217.636 25.9618L213.818 26.3835L214.291 30.6523L218.108 30.2304L217.636 25.9618ZM211.918 28.7541L213.607 43.9995L217.883 43.5271L216.193 28.2817L211.918 28.7541ZM215.982 45.8976L219.798 45.4758L219.325 41.2071L215.508 41.6289L215.982 45.8976ZM231.443 11.1643L231.205 9.02997L229.068 9.26617L229.306 11.4005L231.443 11.1643ZM242.893 9.8989L245.03 9.66269L244.794 7.52844L242.656 7.76452L242.893 9.8989ZM244.16 21.333L244.396 23.4672L246.535 23.231L246.297 21.0968L244.16 21.333ZM232.709 22.5983L230.572 22.8345L230.809 24.9689L232.946 24.7327L232.709 22.5983ZM233.132 26.4097L232.896 24.2754L230.757 24.5116L230.994 26.6459L233.132 26.4097ZM244.583 25.1443L246.72 24.9081L246.484 22.7737L244.346 23.0099L244.583 25.1443ZM247.539 51.8238L247.777 53.958L249.914 53.7218L249.676 51.5876L247.539 51.8238ZM236.088 53.0891L233.951 53.3253L234.188 55.4598L236.326 55.2236L236.088 53.0891ZM231.679 13.2987L243.13 12.0333L242.656 7.76452L231.205 9.02997L231.679 13.2987ZM240.755 10.1352L242.023 21.5692L246.297 21.0968L245.03 9.66269L240.755 10.1352ZM243.924 19.1986L232.473 20.4641L232.946 24.7327L244.396 23.4672L243.924 19.1986ZM234.846 22.3621L233.58 10.9281L229.306 11.4005L230.572 22.8345L234.846 22.3621ZM233.368 28.5441L244.819 27.2787L244.346 23.0099L232.896 24.2754L233.368 28.5441ZM242.446 25.3805L245.402 52.06L249.676 51.5876L246.72 24.9081L242.446 25.3805ZM247.303 49.6894L235.852 50.9548L236.326 55.2236L247.777 53.958L247.303 49.6894ZM238.227 52.8529L235.269 26.1735L230.994 26.6459L233.951 53.3253L238.227 52.8529ZM262.829 50.134L263.066 52.2684L265.203 52.0322L264.966 49.8978L262.829 50.134ZM251.379 51.3995L249.242 51.6357L249.478 53.77L251.615 53.5338L251.379 51.3995ZM247.154 13.286L246.918 11.1516L244.781 11.3878L245.017 13.5222L247.154 13.286ZM273.873 10.3334L276.01 10.0972L275.774 7.96284L273.635 8.19905L273.873 10.3334ZM278.096 48.4469L278.333 50.5811L280.471 50.3449L280.234 48.2107L278.096 48.4469ZM266.647 49.7122L264.508 49.9484L264.746 52.0828L266.883 51.8466L266.647 49.7122ZM263.689 23.0328L265.827 22.7966L265.59 20.6623L263.453 20.8985L263.689 23.0328ZM259.872 23.4547L259.635 21.3203L257.498 21.5565L257.735 23.6909L259.872 23.4547ZM262.593 47.9998L251.142 49.2651L251.615 53.5338L263.066 52.2684L262.593 47.9998ZM253.516 51.1633L249.291 13.0498L245.017 13.5222L249.242 51.6357L253.516 51.1633ZM247.391 15.4204L274.109 12.4678L273.635 8.19905L246.918 11.1516L247.391 15.4204ZM271.736 10.5696L275.959 48.6831L280.234 48.2107L276.01 10.0972L271.736 10.5696ZM277.86 46.3125L266.409 47.578L266.883 51.8466L278.333 50.5811L277.86 46.3125ZM268.784 49.476L265.827 22.7966L261.552 23.2691L264.508 49.9484L268.784 49.476ZM263.453 20.8985L259.635 21.3203L260.108 25.589L263.925 25.1672L263.453 20.8985ZM257.735 23.6909L260.692 50.3702L264.966 49.8978L262.01 23.2185L257.735 23.6909ZM281.374 43.2236L281.137 41.0892L278.999 41.3254L279.237 43.4598L281.374 43.2236ZM286.183 42.6921L288.32 42.4559L288.084 40.3215L285.946 40.5577L286.183 42.6921ZM286.715 47.4943L286.951 49.6288L289.09 49.3925L288.852 47.2583L286.715 47.4943ZM281.907 48.0259L279.768 48.2621L280.005 50.3964L282.143 50.1602L281.907 48.0259ZM281.61 45.358L286.42 44.8265L285.946 40.5577L281.137 41.0892L281.61 45.358ZM284.046 42.9283L284.578 47.7305L288.852 47.2583L288.32 42.4559L284.046 42.9283ZM286.479 45.3601L281.669 45.8915L282.143 50.1602L286.951 49.6288L286.479 45.3601ZM284.044 47.7897L283.511 42.9874L279.237 43.4598L279.768 48.2621L284.044 47.7897ZM286.554 31.3086L286.317 29.1742L284.18 29.4104L284.417 31.5448L286.554 31.3086ZM297.774 30.0684L299.913 29.8322L299.677 27.698L297.538 27.9342L297.774 30.0684ZM298.485 36.4716L298.721 38.6059L300.859 38.3697L300.622 36.2354L298.485 36.4716ZM293.676 37.003L291.538 37.2393L291.774 39.3735L293.913 39.1373L293.676 37.003ZM293.498 35.4022L295.636 35.166L295.4 33.0318L293.261 33.2678L293.498 35.4022ZM291.895 35.5794L291.659 33.445L289.52 33.6813L289.758 35.8156L291.895 35.5794ZM292.605 41.9824L290.467 42.2186L290.704 44.353L292.841 44.1168L292.605 41.9824ZM294.208 41.8053L294.444 43.9397L296.583 43.7035L296.345 41.5691L294.208 41.8053ZM293.853 38.6038L293.616 36.4693L291.479 36.7057L291.715 38.84L293.853 38.6038ZM298.662 38.0723L300.8 37.8361L300.563 35.7017L298.426 35.9379L298.662 38.0723ZM299.549 46.0762L299.786 48.2104L301.924 47.9742L301.686 45.84L299.549 46.0762ZM288.328 47.3162L286.19 47.5524L286.426 49.6868L288.565 49.4506L288.328 47.3162ZM286.79 33.443L298.012 32.2028L297.538 27.9342L286.317 29.1742L286.79 33.443ZM295.637 30.3046L296.348 36.7078L300.622 36.2354L299.913 29.8322L295.637 30.3046ZM298.248 34.3372L293.439 34.8686L293.913 39.1373L298.721 38.6059L298.248 34.3372ZM295.813 36.7667L295.636 35.166L291.361 35.6384L291.538 37.2393L295.813 36.7667ZM293.261 33.2678L291.659 33.445L292.131 37.7138L293.735 37.5366L293.261 33.2678ZM289.758 35.8156L290.467 42.2186L294.742 41.7462L294.032 35.3432L289.758 35.8156ZM292.841 44.1168L294.444 43.9397L293.972 39.671L292.368 39.848L292.841 44.1168ZM296.345 41.5691L295.991 38.3676L291.715 38.84L292.071 42.0415L296.345 41.5691ZM294.09 40.7381L298.898 40.2067L298.426 35.9379L293.616 36.4693L294.09 40.7381ZM296.525 38.3085L297.412 46.3123L301.686 45.84L300.8 37.8361L296.525 38.3085ZM299.313 43.9418L288.091 45.1818L288.565 49.4506L299.786 48.2104L299.313 43.9418ZM290.465 47.08L288.691 31.0724L284.417 31.5448L286.19 47.5524L290.465 47.08ZM299.375 29.8917L299.138 27.7574L297.001 27.9936L297.238 30.1278L299.375 29.8917ZM310.597 28.6516L312.734 28.4154L312.498 26.281L310.361 26.5172L310.597 28.6516ZM312.37 44.6592L312.608 46.7936L314.745 46.5574L314.507 44.423L312.37 44.6592ZM301.149 45.8993L299.011 46.1356L299.249 48.2698L301.386 48.0336L301.149 45.8993ZM307.029 40.3884L307.265 42.5227L309.404 42.2865L309.166 40.1522L307.029 40.3884ZM306.319 33.9854L308.457 33.7492L308.221 31.6148L306.083 31.851L306.319 33.9854ZM304.717 34.1625L304.48 32.0281L302.343 32.2643L302.579 34.3987L304.717 34.1625ZM305.426 40.5656L303.289 40.8018L303.525 42.9362L305.662 42.7L305.426 40.5656ZM299.611 32.026L310.833 30.786L310.361 26.5172L299.138 27.7574L299.611 32.026ZM308.46 28.8878L310.233 44.8954L314.507 44.423L312.734 28.4154L308.46 28.8878ZM312.134 42.5248L300.913 43.765L301.386 48.0336L312.608 46.7936L312.134 42.5248ZM303.287 45.6631L301.513 29.6555L297.238 30.1278L299.011 46.1356L303.287 45.6631ZM309.166 40.1522L308.457 33.7492L304.182 34.2216L304.892 40.6246L309.166 40.1522ZM306.083 31.851L304.48 32.0281L304.954 36.2968L306.556 36.1197L306.083 31.851ZM302.579 34.3987L303.289 40.8018L307.563 40.3294L306.854 33.9262L302.579 34.3987ZM305.662 42.7L307.265 42.5227L306.793 38.254L305.19 38.4312L305.662 42.7ZM312.197 28.4748L311.961 26.3404L309.822 26.5766L310.059 28.711L312.197 28.4748ZM329.831 26.526L331.968 26.2898L331.731 24.1555L329.594 24.3918L329.831 26.526ZM331.604 42.5337L331.84 44.668L333.979 44.4318L333.742 42.2975L331.604 42.5337ZM326.796 43.0651L324.657 43.3013L324.895 45.4357L327.032 45.1995L326.796 43.0651ZM325.554 31.8598L327.691 31.6236L327.455 29.4893L325.317 29.7254L325.554 31.8598ZM323.95 32.037L323.713 29.9026L321.576 30.1388L321.813 32.2732L323.95 32.037ZM325.193 43.2424L325.429 45.3767L327.566 45.1405L327.33 43.006L325.193 43.2424ZM320.383 43.7738L318.246 44.01L318.482 46.1443L320.619 45.9081L320.383 43.7738ZM319.141 32.5684L321.278 32.3322L321.042 30.1978L318.905 30.434L319.141 32.5684ZM317.538 32.7456L317.301 30.6112L315.164 30.8474L315.4 32.9818L317.538 32.7456ZM318.78 43.951L319.017 46.0852L321.154 45.849L320.917 43.7148L318.78 43.951ZM313.971 44.4824L311.833 44.7186L312.07 46.853L314.207 46.6168L313.971 44.4824ZM312.433 30.6091L330.067 28.6604L329.594 24.3918L311.961 26.3404L312.433 30.6091ZM327.693 26.7622L329.467 42.7698L333.742 42.2975L331.968 26.2898L327.693 26.7622ZM331.368 40.3994L326.559 40.9308L327.032 45.1995L331.84 44.668L331.368 40.3994ZM328.933 42.8289L327.691 31.6236L323.415 32.096L324.657 43.3013L328.933 42.8289ZM325.317 29.7254L323.713 29.9026L324.187 34.1714L325.79 33.9941L325.317 29.7254ZM321.813 32.2732L323.056 43.4786L327.33 43.006L326.088 31.8008L321.813 32.2732ZM324.955 41.108L320.147 41.6394L320.619 45.9081L325.429 45.3767L324.955 41.108ZM322.52 43.5375L321.278 32.3322L317.004 32.8046L318.246 44.01L322.52 43.5375ZM318.905 30.434L317.301 30.6112L317.775 34.88L319.378 34.7028L318.905 30.434ZM315.4 32.9818L316.642 44.1872L320.917 43.7148L319.676 32.5094L315.4 32.9818ZM318.544 41.8166L313.734 42.3481L314.207 46.6168L319.017 46.0852L318.544 41.8166ZM316.108 44.2462L314.334 28.2386L310.059 28.711L311.833 44.7186L316.108 44.2462Z" fill="black"/>
</g>
</g>
<path d="M179.614 75.5719C179.292 75.4015 179.2 75.1288 179.339 74.7553L179.863 73.3343C179.996 72.9988 180.237 72.8821 180.59 72.9857C180.837 73.063 181.088 73.1207 181.341 73.1613C181.594 73.2007 181.849 73.2072 182.105 73.1823C182.251 73.1679 182.362 73.1246 182.439 73.0525C182.513 72.9713 182.565 72.8782 182.591 72.7746C182.626 72.6698 182.643 72.5571 182.641 72.4378C182.638 72.3172 182.626 72.2031 182.607 72.0943L182.276 70.0259C182.211 69.6536 182.003 69.499 181.648 69.5619L180.804 69.7008C180.441 69.765 180.217 69.6117 180.135 69.242L179.72 67.2916C179.637 66.9206 179.778 66.7135 180.143 66.6676L185.538 65.8995C185.894 65.8549 186.102 66.0096 186.165 66.3622L186.48 68.2812C186.526 68.5539 186.417 68.7164 186.155 68.7702C185.874 68.8252 185.757 68.9943 185.803 69.2748L186.303 73.1954C186.37 73.6778 186.328 74.0959 186.178 74.4525C186.029 74.7985 185.804 75.0934 185.505 75.3346C185.214 75.5666 184.862 75.7488 184.451 75.8812C184.039 76.0058 183.603 76.0897 183.146 76.1355C182.89 76.1604 182.609 76.1696 182.305 76.1631C182.008 76.1565 181.701 76.1316 181.383 76.0883C181.064 76.0464 180.753 75.9848 180.45 75.9048C180.145 75.8144 179.867 75.7043 179.614 75.5719ZM187.043 70.7849C186.862 68.9576 187.188 67.5839 188.02 66.6624C188.851 65.7317 190.14 65.1812 191.886 65.0082C192.727 64.9243 193.489 64.9597 194.169 65.1143C194.858 65.2664 195.453 65.5403 195.953 65.9323C196.463 66.3255 196.869 66.838 197.172 67.4725C197.483 68.0951 197.683 68.8462 197.77 69.7231C197.955 71.5766 197.645 72.9713 196.841 73.9085C196.047 74.8352 194.759 75.3871 192.976 75.564C191.257 75.7331 189.883 75.4277 188.854 74.6438C187.825 73.86 187.222 72.5741 187.043 70.7849ZM191.169 70.3484C191.193 70.5764 191.232 70.7848 191.287 70.9723C191.343 71.161 191.423 71.3183 191.528 71.4468C191.633 71.5753 191.772 71.6723 191.945 71.7378C192.126 71.7929 192.344 71.8086 192.6 71.7837C192.865 71.7575 193.073 71.6998 193.221 71.6106C193.377 71.5123 193.494 71.3904 193.572 71.2449C193.659 71.0981 193.707 70.9264 193.715 70.7324C193.733 70.5371 193.73 70.3248 193.707 70.0967C193.684 69.8686 193.645 69.6602 193.59 69.4727C193.543 69.2748 193.466 69.107 193.36 68.9694C193.254 68.8331 193.115 68.7308 192.941 68.6653C192.769 68.5997 192.55 68.5801 192.285 68.6063C192.038 68.6299 191.837 68.6967 191.681 68.8042C191.525 68.9025 191.404 69.0297 191.318 69.1857C191.24 69.3403 191.189 69.5212 191.164 69.727C191.146 69.9223 191.148 70.1295 191.169 70.3484ZM199.317 74.4787C198.96 74.5141 198.768 74.3489 198.741 73.9832L198.432 68.7715C198.405 68.4058 198.578 68.2039 198.954 68.1672L201.907 67.9155C202.272 67.8801 202.478 68.044 202.523 68.4084L203.219 73.5952C203.263 73.9596 203.103 74.1602 202.738 74.1956L199.317 74.4787ZM197.899 65.7815C197.764 64.4209 198.478 63.6633 200.042 63.5086C201.597 63.3552 202.441 63.9582 202.577 65.3188C202.713 66.6886 202.003 67.4502 200.449 67.6035C198.885 67.7582 198.036 67.1513 197.899 65.7815ZM206.86 63.4431C207.221 63.3513 207.499 63.4627 207.696 63.7747L209.58 66.838C209.775 67.1421 209.861 67.1146 209.834 66.7581L209.644 63.8586C209.617 63.4929 209.786 63.291 210.152 63.2543L212.432 63.0708C212.799 63.0341 213.005 63.1979 213.049 63.5623L214.069 71.8846C214.114 72.2398 213.962 72.4718 213.612 72.5806L211.428 73.1836C211.078 73.2832 210.805 73.1757 210.608 72.8638L208.643 69.8214C208.447 69.5186 208.349 69.5461 208.347 69.9066L208.343 72.7969C208.334 73.1757 208.152 73.3829 207.795 73.4182L205.37 73.687C205.004 73.7224 204.808 73.5624 204.782 73.2059L204.38 67.4777C204.353 67.112 204.164 66.9822 203.814 67.091L203.748 67.112C203.389 67.2208 203.192 67.0923 203.156 66.7279L202.969 64.9898C202.932 64.6241 203.09 64.396 203.442 64.3069L206.86 63.4431ZM218.257 66.0489C217.892 66.0935 217.692 65.9388 217.657 65.5823L217.423 63.3644C217.386 63 217.552 62.7989 217.917 62.7628L224.906 62.0017C225.272 61.9655 225.477 62.1296 225.523 62.4939L225.807 64.6647C225.852 65.0291 225.693 65.2336 225.328 65.2795L224.084 65.4447C223.728 65.4879 223.573 65.6924 223.619 66.0568L224.43 71.4403C224.475 71.8047 224.32 72.0039 223.963 72.0393L220.904 72.3421C220.538 72.3788 220.337 72.2136 220.302 71.8492L219.815 66.3924C219.779 66.0358 219.58 65.8811 219.215 65.9257L218.257 66.0489ZM225.776 62.4134C225.704 62.0519 225.845 61.8489 226.201 61.8044L229.843 61.3748C230.208 61.3294 230.407 61.4893 230.444 61.8546L230.74 64.5638C230.773 64.8928 230.958 65.0357 231.296 64.9924C231.633 64.9505 231.784 64.7552 231.75 64.4078L231.478 61.9459C231.441 61.5807 231.607 61.3799 231.972 61.3437L234.656 61.0364C235.023 61.0003 235.223 61.1648 235.26 61.5299L236.142 70.2802C236.179 70.6459 236.014 70.8465 235.647 70.8832L233.097 71.1348C232.731 71.1715 232.526 71.0077 232.48 70.6433L232.257 68.8121C232.202 68.4398 231.994 68.2655 231.637 68.2917L231.569 68.2996C231.201 68.3258 231.036 68.5172 231.071 68.8737L231.259 70.7639C231.296 71.1296 231.13 71.3301 230.765 71.3655L228.154 71.5831C227.79 71.6198 227.593 71.4547 227.565 71.0876L227.07 64.8443C227.045 64.5887 226.91 64.4917 226.667 64.552C226.407 64.6241 226.25 64.5284 226.196 64.2662L225.776 62.4134ZM238.218 70.6289C237.851 70.6642 237.651 70.5004 237.615 70.1347L237.119 64.3056C237.115 64.2597 237.101 64.2151 237.078 64.1719C237.064 64.1181 237.024 64.0932 236.96 64.0998C236.914 64.105 236.866 64.1234 236.813 64.1561C236.77 64.1876 236.721 64.2073 236.666 64.2125C236.612 64.2177 236.568 64.1994 236.536 64.1561C236.505 64.1129 236.481 64.0696 236.468 64.0251C236.427 63.89 236.373 63.7288 236.309 63.5427C236.243 63.3461 236.178 63.1455 236.111 62.9397C236.053 62.7331 235.997 62.5359 235.941 62.3478C235.894 62.1586 235.865 62.0003 235.852 61.8725C235.839 61.7355 235.871 61.6355 235.948 61.5725C236.033 61.5087 236.14 61.4659 236.267 61.4441C237.443 61.2909 238.614 61.1334 239.78 60.9719C240.953 60.8004 242.131 60.6562 243.311 60.5394C243.493 60.5213 243.626 60.5588 243.71 60.652C243.801 60.7352 243.854 60.8589 243.871 61.0233L244.039 62.7216C244.076 63.0865 243.911 63.2871 243.546 63.3238L240.818 63.6213C240.553 63.6475 240.435 63.7983 240.461 64.0722C240.489 64.3462 240.64 64.4694 240.914 64.4419L242.546 64.2807C242.912 64.244 243.127 64.4078 243.19 64.7696C243.215 64.9334 243.241 65.096 243.266 65.2598C243.302 65.4224 243.327 65.5862 243.342 65.7501C243.362 65.9428 243.307 66.0817 243.177 66.1682C243.055 66.2442 242.899 66.2967 242.707 66.3255C242.517 66.353 242.3 66.3648 242.06 66.3609C241.829 66.357 241.617 66.3635 241.425 66.3832C241.233 66.4015 241.071 66.4461 240.939 66.5143C240.817 66.5811 240.764 66.7017 240.781 66.8747C240.796 67.0216 240.844 67.1408 240.928 67.2339C241.01 67.3178 241.129 67.3532 241.284 67.3374C241.715 67.2942 242.137 67.2339 242.555 67.1566C242.971 67.0779 243.395 67.0176 243.824 66.9757C244.163 66.9416 244.349 67.0989 244.383 67.4449L244.61 69.4426C244.646 69.807 244.482 70.0089 244.116 70.0442L238.218 70.6289ZM249.86 69.6969C249.695 69.7139 249.571 69.6798 249.49 69.5959C249.416 69.5107 249.372 69.3902 249.357 69.2355L248.849 63.0066C248.841 62.924 248.822 62.866 248.79 62.8322C248.768 62.7975 248.739 62.7774 248.701 62.7719C248.664 62.7664 248.618 62.7709 248.564 62.7854C248.518 62.79 248.468 62.795 248.413 62.8004C248.331 62.8086 248.269 62.787 248.227 62.7359C248.185 62.6848 248.155 62.623 248.139 62.5509C248.081 62.2523 248.02 61.9497 247.951 61.6428C247.883 61.3268 247.834 61.0182 247.804 60.7169C247.774 60.4065 247.922 60.2258 248.249 60.175L254.834 59.1082L254.902 59.1014C255.231 59.0688 255.413 59.2261 255.447 59.5731L255.684 61.6795C255.718 62.0265 255.575 62.2158 255.256 62.2475C254.844 62.2882 254.432 62.3152 254.017 62.3286C253.602 62.3328 253.189 62.3552 252.777 62.396C252.439 62.4296 252.287 62.6197 252.321 62.9672C252.333 63.0852 252.346 63.2084 252.358 63.3369C252.371 63.464 252.396 63.5768 252.433 63.6751C252.471 63.7721 252.529 63.8494 252.609 63.9071C252.698 63.9621 252.824 63.9818 252.988 63.9661L254.674 63.7708C254.838 63.755 254.97 63.7839 255.069 63.856C255.178 63.9294 255.241 64.0513 255.258 64.2256C255.318 64.8273 255.352 65.2716 255.363 65.5561C255.381 65.8313 255.326 66.0214 255.197 66.1263C255.069 66.222 254.843 66.2718 254.52 66.2757C254.206 66.2796 253.752 66.3111 253.157 66.3688C252.984 66.3871 252.861 66.45 252.789 66.5575C252.715 66.6571 252.687 66.7895 252.703 66.9534L252.897 68.622C252.933 68.9877 252.77 69.2014 252.407 69.2656C251.989 69.3338 251.562 69.4138 251.128 69.5029C250.703 69.5907 250.28 69.6549 249.86 69.6969ZM257.958 68.6745C257.592 68.7099 257.395 68.546 257.369 68.179L256.906 61.5724C256.899 61.3148 256.787 61.2522 256.569 61.3844C256.343 61.5267 256.204 61.4714 256.15 61.2184L255.648 59.0829C255.557 58.7231 255.697 58.5155 256.072 58.4602L259.811 57.91C260.176 57.8647 260.372 58.0205 260.398 58.3775L260.871 64.6791C260.898 65.0449 261.086 65.1694 261.435 65.0514L263.742 64.2977C264.091 64.181 264.288 64.3043 264.332 64.6687L264.72 67.4515C264.766 67.8159 264.605 68.0164 264.239 68.0518L257.958 68.6745ZM269.273 63.1691C269.603 63.1363 269.718 62.9554 269.621 62.6234L269.2 61.3097C269.094 60.9791 269.015 60.9868 268.966 61.3328L268.811 62.7035C268.781 63.0472 268.935 63.2032 269.273 63.1691ZM265.754 61.8997C265.801 61.5446 265.648 61.3847 265.291 61.4201L264.797 61.469C264.44 61.5043 264.296 61.348 264.363 61.0003L264.73 59.1242C264.797 58.7765 265.019 58.5841 265.393 58.547L270.585 58.1021C270.942 58.0668 271.189 58.2269 271.325 58.5821L274.235 66.4133C274.363 66.7594 274.243 66.956 273.878 67.0019L271.733 67.2968C271.368 67.3414 271.118 67.1919 270.983 66.8459L270.607 65.8589C270.471 65.5036 270.22 65.3581 269.858 65.4211L269.258 65.522C268.894 65.5862 268.685 65.796 268.628 66.1512L268.488 66.9822C268.432 67.3466 268.222 67.5472 267.856 67.5839L265.431 67.8513C265.074 67.8867 264.919 67.7228 264.966 67.3584L265.754 61.8997ZM274.728 60.4581C274.692 60.1021 274.506 59.9869 274.167 60.1126L273.981 60.1864C273.642 60.3121 273.45 60.1974 273.406 59.8422L273.188 58.2041C273.142 57.8306 273.299 57.6075 273.662 57.5348C273.977 57.4574 274.315 57.3777 274.676 57.2959C275.048 57.2132 275.414 57.1354 275.775 57.0626C276.147 56.9891 276.505 56.9213 276.85 56.8596C277.203 56.7968 277.522 56.7514 277.806 56.7234C278.355 56.6691 278.911 56.6553 279.478 56.6823C280.044 56.7093 280.563 56.8193 281.034 57.0124C281.505 57.2054 281.904 57.4979 282.23 57.8899C282.554 58.2818 282.751 58.8157 282.818 59.4914C282.891 60.2309 282.86 60.8517 282.726 61.3538C282.591 61.8558 282.365 62.2747 282.047 62.6104C281.73 62.9463 281.327 63.2163 280.84 63.4221C280.36 63.6161 279.813 63.7865 279.2 63.9294C278.838 64.0028 278.675 64.2217 278.712 64.5861L278.805 65.8077C278.842 66.1735 278.676 66.3793 278.311 66.4238L275.85 66.7371C275.485 66.7817 275.284 66.6217 275.247 66.2573L274.728 60.4581ZM278.344 61.0269C278.382 61.4104 278.575 61.5433 278.924 61.4259C279.058 61.3848 279.187 61.3353 279.31 61.277C279.434 61.2095 279.541 61.1342 279.634 61.0512C279.737 60.9674 279.81 60.8679 279.854 60.7529C279.906 60.6279 279.925 60.4877 279.909 60.3325C279.889 60.1316 279.842 59.9749 279.766 59.8626C279.699 59.7402 279.611 59.6475 279.503 59.5843C279.403 59.5204 279.289 59.4856 279.159 59.48C279.029 59.4653 278.89 59.4652 278.744 59.4796C278.381 59.5341 278.218 59.7532 278.256 60.1366L278.344 61.0269ZM284.824 58.9192C284.75 59.2863 284.528 59.4741 284.159 59.483L283.676 59.4894C283.307 59.4982 283.133 59.3218 283.153 58.9603L283.231 56.8226C283.251 56.4611 283.445 56.2805 283.814 56.2807L284.828 56.3048C285.198 56.3052 285.345 56.4889 285.27 56.8558L284.824 58.9192ZM289.612 55.2504C289.972 55.1593 290.252 55.2701 290.448 55.5825L292.331 58.6463C292.528 58.9496 292.613 58.9228 292.587 58.5657L292.395 55.6663C292.369 55.3002 292.538 55.099 292.903 55.0629L295.185 54.8786C295.551 54.8422 295.756 55.0064 295.802 55.3706L296.822 63.6921C296.866 64.0473 296.714 64.2794 296.363 64.3882L294.18 64.9911C293.83 65.0907 293.556 64.9846 293.359 64.6713L291.395 61.6297C291.198 61.3264 291.1 61.3547 291.098 61.7144L291.094 64.6057C291.086 64.9846 290.904 65.1917 290.547 65.2271L288.122 65.4945C287.756 65.5312 287.561 65.3699 287.534 65.0134L287.131 59.2856C287.104 58.9195 286.916 58.7905 286.567 58.8989L286.5 58.9194C286.142 59.0287 285.943 58.9006 285.908 58.5354L285.721 56.7973C285.685 56.4321 285.842 56.2044 286.193 56.1144L289.612 55.2504ZM302.004 64.535C301.84 64.5507 301.717 64.5179 301.634 64.4327C301.562 64.3488 301.517 64.2282 301.501 64.0736L300.995 57.8441C300.985 57.7619 300.966 57.704 300.936 57.6702C300.913 57.6354 300.883 57.6152 300.846 57.6097C300.808 57.6042 300.762 57.6088 300.709 57.6234C300.664 57.6278 300.613 57.6328 300.558 57.6383C300.476 57.6464 300.413 57.6249 300.371 57.5738C300.329 57.5226 300.3 57.461 300.285 57.3889C300.227 57.0903 300.164 56.7875 300.097 56.4806C300.029 56.1647 299.98 55.856 299.95 55.5548C299.918 55.2443 300.067 55.0636 300.395 55.0128L306.978 53.9461L307.048 53.9392C307.376 53.9067 307.558 54.0639 307.592 54.4109L307.83 56.5174C307.864 56.8644 307.721 57.0537 307.401 57.0854C306.99 57.1261 306.576 57.1532 306.163 57.1664C305.748 57.1707 305.334 57.1932 304.922 57.2339C304.584 57.2674 304.433 57.4577 304.467 57.8047C304.479 57.9233 304.49 58.0466 304.503 58.1744C304.517 58.3022 304.542 58.415 304.578 58.5128C304.616 58.6104 304.674 58.6876 304.754 58.7444C304.842 58.8001 304.97 58.8199 305.134 58.8035L306.818 58.6091C306.983 58.5928 307.114 58.6213 307.214 58.6944C307.323 58.7667 307.386 58.8895 307.403 59.0629C307.464 59.6656 307.498 60.1093 307.508 60.3941C307.525 60.669 307.472 60.8588 307.343 60.9638C307.214 61.0595 306.988 61.1096 306.665 61.1139C306.352 61.1172 305.898 61.1484 305.303 61.2072C305.13 61.2244 305.006 61.2873 304.934 61.3959C304.861 61.4953 304.833 61.6272 304.849 61.7916L305.042 63.4601C305.078 63.8245 304.914 64.0395 304.552 64.1037C304.133 64.1719 303.708 64.2505 303.274 64.3396C302.848 64.4288 302.425 64.493 302.004 64.535ZM313.614 53.7042C313.568 53.3308 313.726 53.1213 314.091 53.0759L316.37 52.726C316.752 52.6697 316.989 52.8169 317.078 53.1676C317.151 53.4369 317.225 53.757 317.298 54.1277C317.381 54.4885 317.453 54.8547 317.519 55.2263C317.591 55.588 317.651 55.923 317.701 56.2317C317.75 56.5312 317.781 56.7585 317.797 56.9137C317.885 57.7994 317.901 58.6094 317.844 59.3433C317.788 60.0773 317.62 60.7208 317.343 61.2739C317.065 61.8178 316.651 62.2598 316.104 62.6C315.564 62.9397 314.851 63.1521 313.965 63.2399C313.087 63.3277 312.349 63.2936 311.752 63.1416C311.164 62.9777 310.686 62.7213 310.319 62.3703C309.951 62.0104 309.676 61.5719 309.496 61.0549C309.324 60.528 309.21 59.9445 309.156 59.3045L308.935 56.6707C308.912 56.4241 308.782 56.3309 308.548 56.391C308.305 56.4519 308.18 56.3582 308.174 56.1099L308.098 54.3747C308.088 53.9976 308.262 53.7868 308.617 53.7424L311.788 53.3042C312.153 53.2588 312.347 53.4145 312.373 53.7716C312.405 54.2664 312.426 54.7623 312.439 55.2589C312.449 55.7464 312.479 56.2368 312.529 56.7299C312.539 56.8212 312.553 56.9673 312.573 57.1681C312.6 57.359 312.632 57.5772 312.665 57.8229C312.707 58.0584 312.755 58.3072 312.809 58.5694C312.871 58.8214 312.939 59.0497 313.015 59.2543C313.1 59.458 313.195 59.6238 313.3 59.7517C313.405 59.8795 313.522 59.9372 313.649 59.9245C313.851 59.9046 313.99 59.7802 314.069 59.551C314.157 59.321 314.21 59.0576 314.227 58.7609C314.253 58.4633 314.256 58.1725 314.237 57.8885C314.217 57.5955 314.2 57.3805 314.186 57.2435C314.152 56.8965 314.108 56.5549 314.057 56.219C314.005 55.8738 313.943 55.5295 313.871 55.1862C313.838 55.0328 313.797 54.8155 313.751 54.5342C313.704 54.2439 313.658 53.9672 313.614 53.7042ZM321.651 52.0786C322.012 51.9876 322.291 52.0984 322.487 52.4107L324.371 55.4746C324.568 55.7779 324.652 55.751 324.626 55.394L324.435 52.4946C324.408 52.1284 324.577 51.9273 324.943 51.891L327.225 51.7067C327.59 51.6705 327.796 51.8346 327.841 52.1989L328.862 60.5209C328.905 60.8761 328.753 61.1079 328.404 61.2163L326.219 61.8196C325.87 61.9189 325.596 61.8123 325.399 61.4999L323.435 58.458C323.238 58.1546 323.14 58.1828 323.139 58.5425L323.135 61.4336C323.125 61.8126 322.943 62.0195 322.587 62.0549L320.161 62.3226C319.796 62.3588 319.599 62.1985 319.573 61.8414L319.172 56.1137C319.144 55.7476 318.956 55.6188 318.607 55.7272L318.539 55.7476C318.18 55.8568 317.984 55.7289 317.947 55.3637L317.76 53.6256C317.725 53.2604 317.882 53.0327 318.233 52.9426L321.651 52.0786ZM329.426 59.9118C329.395 59.5922 329.42 59.3269 329.5 59.1161C329.58 58.8962 329.701 58.7181 329.862 58.5823C330.033 58.4363 330.235 58.3288 330.467 58.2596C330.709 58.1803 330.977 58.1263 331.268 58.0974C331.533 58.071 331.768 58.1033 331.97 58.1938C332.172 58.2752 332.342 58.3967 332.478 58.5585C332.614 58.7111 332.72 58.8988 332.797 59.1216C332.873 59.3354 332.923 59.5609 332.947 59.7982C332.975 60.0722 332.943 60.3151 332.854 60.5268C332.763 60.7294 332.632 60.8991 332.461 61.0359C332.289 61.1728 332.088 61.2802 331.856 61.3586C331.633 61.4361 331.398 61.487 331.15 61.5113C330.903 61.5358 330.68 61.5119 330.479 61.4396C330.277 61.3582 330.098 61.2421 329.945 61.0914C329.8 60.9396 329.682 60.7623 329.588 60.5596C329.502 60.356 329.449 60.14 329.426 59.9118Z" fill="black"/>
</g>
<defs>
<filter id="filter0_d_356_193" x="-3.91333" y="7.52844" width="341.892" height="81.2356" filterUnits="userSpaceOnUse" color-interpolation-filters="sRGB">
<feFlood flood-opacity="0" result="BackgroundImageFix"/>
<feColorMatrix in="SourceAlpha" type="matrix" values="0 0 0 0 0 0 0 0 0 0 0 0 0 0 0 0 0 0 127 0" result="hardAlpha"/>
<feOffset dy="4"/>
<feGaussianBlur stdDeviation="2"/>
<feComposite in2="hardAlpha" operator="out"/>
<feColorMatrix type="matrix" values="0 0 0 0 0 0 0 0 0 0 0 0 0 0 0 0 0 0 0.25 0"/>
<feBlend mode="normal" in2="BackgroundImageFix" result="effect1_dropShadow_356_193"/>
<feBlend mode="normal" in="SourceGraphic" in2="effect1_dropShadow_356_193" result="shape"/>
</filter>
<linearGradient id="paint0_linear_356_193" x1="168.239" y1="35.887" x2="172.608" y2="76.85" gradientUnits="userSpaceOnUse">
<stop stop-color="#FFEB3B"/>
<stop offset="0.551143" stop-color="#5EE270"/>
</linearGradient>
</defs>
</svg>
