<svg width="940" height="994" viewBox="0 0 940 994" fill="none" xmlns="http://www.w3.org/2000/svg">
<g filter="url(#filter0_d_2021_288)">
<path fill-rule="evenodd" clip-rule="evenodd" d="M283.656 67.5864C331.145 -17.5509 521.755 -31.0692 581.823 78.3005C656.595 37.0742 787.256 58.5987 835.914 148.235C860.78 194.041 902.658 273.735 860.78 405.338C860.78 405.338 947.154 440.801 934.067 607.77C920.98 774.74 760.658 813.792 760.658 813.792C760.658 813.792 635.935 1122.8 338.606 911.786C226.115 1022.69 79.5935 971.843 4.00008 911.786L4.00009 585.369L3.99999 165.623C3.99999 165.623 55.3698 -37.829 283.656 67.5864Z" fill="#FF2D84"/>
</g>
<defs>
<filter id="filter0_d_2021_288" x="0" y="-0.000488281" width="939.417" height="993.514" filterUnits="userSpaceOnUse" color-interpolation-filters="sRGB">
<feFlood flood-opacity="0" result="BackgroundImageFix"/>
<feColorMatrix in="SourceAlpha" type="matrix" values="0 0 0 0 0 0 0 0 0 0 0 0 0 0 0 0 0 0 127 0" result="hardAlpha"/>
<feOffset dy="4"/>
<feGaussianBlur stdDeviation="2"/>
<feComposite in2="hardAlpha" operator="out"/>
<feColorMatrix type="matrix" values="0 0 0 0 0 0 0 0 0 0 0 0 0 0 0 0 0 0 0.25 0"/>
<feBlend mode="normal" in2="BackgroundImageFix" result="effect1_dropShadow_2021_288"/>
<feBlend mode="normal" in="SourceGraphic" in2="effect1_dropShadow_2021_288" result="shape"/>
</filter>
</defs>
</svg>
