<svg width="1489" height="783" viewBox="0 0 1489 783" fill="none" xmlns="http://www.w3.org/2000/svg">
<g filter="url(#filter0_d_208_187)">
<path fill-rule="evenodd" clip-rule="evenodd" d="M18 135.517C13.1521 134.293 13.153 134.29 13.154 134.286L13.1567 134.275L13.1649 134.243L13.192 134.139C13.2149 134.052 13.2477 133.929 13.2905 133.772C13.3762 133.457 13.5025 133.007 13.6723 132.431C14.0118 131.28 14.5255 129.629 15.2366 127.57C16.6581 123.455 18.8733 117.698 22.0703 111.052C28.4505 97.7892 38.8196 80.8196 54.7421 66.3178C70.7172 51.7682 92.249 39.7416 120.733 36.4629C148.26 33.2944 181.907 38.3372 222.881 56.6026C243.001 25.3824 287.39 8.25671 331.635 8.00287C376.351 7.74632 423.133 24.6839 447.36 64.2799C466.193 55.0001 488.839 50.6131 511.985 51.0643C552.914 28.3054 607.495 26.178 667.999 62.7271C693.202 39.9223 734.135 27.0291 773.667 27.0169C813.091 27.0048 852.734 39.8429 874.47 70.4016C885.539 65.263 898.68 64.3086 912.299 65.7944C954.2 35.3947 1014.36 27.869 1082 68.7272C1107.2 45.9224 1148.13 33.0292 1187.67 33.017C1227.07 33.0049 1266.7 45.8313 1288.44 76.36C1316.33 61.7099 1341.12 57.2208 1362.75 59.1167C1385.39 61.1013 1404.17 70.0461 1419.06 80.9666C1433.93 91.8701 1445 104.798 1452.35 114.95C1456.02 120.037 1458.79 124.456 1460.64 127.62C1461.57 129.203 1462.27 130.475 1462.74 131.362C1462.88 131.629 1463.01 131.862 1463.11 132.057C1463.18 132.186 1463.23 132.299 1463.28 132.396C1463.35 132.517 1463.39 132.612 1463.43 132.68L1463.47 132.761L1463.48 132.786L1463.48 132.794C1463.49 132.797 1463.49 132.8 1459 135.005C1459 135.005 1402 19.0169 1286.82 82.9163C1247.28 20.3598 1130.01 28.383 1082.64 74.9917C1014.37 32.3122 954.506 40.4483 913.676 70.9905C898.094 69.0284 883.842 70.3535 872.822 76.9162C833.279 14.3597 716.015 22.3829 668.643 68.9916C607.583 30.8204 553.247 33.2964 513.24 56.0954C488.633 55.4098 464.751 60.3532 445.719 70.7653C445.624 70.8173 445.529 70.8695 445.434 70.9218C445.382 70.8262 445.329 70.7308 445.277 70.6354C400.667 -9.95889 259.959 0.0917435 224.871 62.9962C56 -14.983 18 135.517 18 135.517ZM18 687.479V135.517L13.1521 134.293L13 134.896L13 689.892L14.8897 691.393C43.4471 714.081 85.3965 735.056 130.999 739.875C175.718 744.601 223.922 733.763 266.022 693.943C326.581 736.093 378.009 749.666 420.911 746.603C462.827 743.612 495.926 724.789 520.86 702.524C547.326 722.028 579.165 727.909 611.292 725.655C643.862 723.371 677.038 712.72 706.024 699.055C818.581 764.87 901.315 753.34 957.546 721.525C1008.01 743.27 1070.5 728.398 1120.02 705.055C1179.42 739.785 1230.58 753.035 1274.06 753.017C1318.11 752.998 1353.91 739.354 1382 721.192C1410.05 703.058 1430.4 680.439 1443.71 662.404C1450.38 653.377 1455.31 645.469 1458.58 639.798C1460.22 636.961 1461.44 634.681 1462.26 633.098C1462.67 632.306 1462.98 631.687 1463.19 631.26C1463.3 631.047 1463.38 630.881 1463.43 630.765L1463.5 630.629L1463.52 630.589L1463.52 630.577C1463.53 630.573 1463.53 630.569 1459 628.446L1463.53 630.569L1464 629.56V133.843L1463.49 132.8L1459 135.005V628.446C1459 628.446 1359.34 840.92 1120.27 699.399C1069.98 723.59 1006.85 738.605 957.256 715.926C902.346 747.91 820.115 760.79 706.271 693.399C647.925 721.464 572.304 737.178 520.581 696.014C471.209 741.908 388.239 774.571 265.519 687.479C182.306 769.517 73.9191 731.905 18 687.479Z" fill="white"/>
</g>
<defs>
<filter id="filter0_d_208_187" x="0.9" y="0.9" width="1487.2" height="781.217" filterUnits="userSpaceOnUse" color-interpolation-filters="sRGB">
<feFlood flood-opacity="0" result="BackgroundImageFix"/>
<feColorMatrix in="SourceAlpha" type="matrix" values="0 0 0 0 0 0 0 0 0 0 0 0 0 0 0 0 0 0 127 0" result="hardAlpha"/>
<feOffset dx="6" dy="11"/>
<feGaussianBlur stdDeviation="9.05"/>
<feComposite in2="hardAlpha" operator="out"/>
<feColorMatrix type="matrix" values="0 0 0 0 0 0 0 0 0 0 0 0 0 0 0 0 0 0 0.25 0"/>
<feBlend mode="normal" in2="BackgroundImageFix" result="effect1_dropShadow_208_187"/>
<feBlend mode="normal" in="SourceGraphic" in2="effect1_dropShadow_208_187" result="shape"/>
</filter>
</defs>
</svg>
